<?xml version="1.0" standalone="no"?>
<!DOCTYPE svg PUBLIC "-//W3C//DTD SVG 20010904//EN"
 "http://www.w3.org/TR/2001/REC-SVG-20010904/DTD/svg10.dtd">
<svg version="1.0" xmlns="http://www.w3.org/2000/svg"
 width="645.000000pt" height="357.000000pt" viewBox="0 0 645.000000 357.000000"
 preserveAspectRatio="xMidYMid meet">

<g transform="translate(0.000000,357.000000) scale(0.100000,-0.100000)"
fill="#000000" stroke="none">
<path d="M2105 3004 c-1005 -365 -1054 -383 -1042 -383 6 -1 491 147 1819 555
l178 54 817 -251 c450 -138 898 -275 997 -305 98 -30 180 -54 181 -52 3 2
-1946 712 -1990 724 -5 2 -437 -152 -960 -342z"/>
<path d="M2190 1715 l0 -315 25 0 25 0 0 278 c0 164 4 271 9 262 5 -8 50 -125
99 -260 50 -135 94 -253 97 -262 4 -11 18 -18 34 -18 25 0 30 10 128 278 l102
277 1 -277 0 -278 30 0 30 0 0 315 0 315 -44 0 -43 0 -99 -270 c-54 -148 -101
-270 -104 -270 -4 0 -49 114 -100 253 -51 138 -97 260 -102 270 -6 12 -21 17
-48 17 l-40 0 0 -315z"/>
<path d="M4260 1990 c0 -36 3 -40 25 -40 23 0 25 4 25 40 0 36 -2 40 -25 40
-22 0 -25 -4 -25 -40z"/>
<path d="M2985 1837 c-60 -34 -97 -101 -103 -187 -6 -91 11 -152 57 -200 53
-55 131 -73 213 -48 45 13 82 47 109 100 l19 38 -30 0 c-22 0 -33 -6 -39 -22
-5 -13 -21 -34 -36 -48 -23 -21 -36 -25 -90 -25 -59 0 -67 3 -99 34 -33 32
-64 111 -51 132 4 5 80 9 176 9 l169 0 0 28 c0 40 -27 123 -49 149 -56 66
-168 84 -246 40z m175 -39 c27 -17 56 -64 65 -105 l7 -33 -151 0 -150 0 9 31
c25 87 85 134 157 125 24 -3 52 -11 63 -18z"/>
<path d="M3433 1840 c-61 -37 -81 -115 -42 -164 27 -35 58 -49 149 -71 116
-28 149 -77 91 -136 -25 -24 -37 -29 -81 -29 -67 0 -105 21 -121 65 -11 29
-18 35 -42 35 -27 0 -29 -2 -23 -27 11 -44 38 -76 87 -101 53 -28 133 -26 195
6 45 23 64 56 64 110 -1 64 -43 97 -164 128 -86 21 -116 45 -116 89 0 45 36
70 100 70 55 0 98 -25 112 -66 7 -22 16 -29 35 -29 22 0 24 3 18 28 -10 40
-32 70 -68 92 -44 28 -150 27 -194 0z"/>
<path d="M3875 1844 c-46 -23 -65 -53 -65 -105 0 -79 31 -104 165 -134 97 -22
132 -60 109 -120 -10 -26 -59 -45 -115 -45 -45 0 -55 4 -85 34 -19 19 -34 41
-34 50 0 10 -9 16 -25 16 -59 0 -12 -99 62 -132 72 -32 191 -13 232 35 35 43
31 126 -9 162 -11 10 -63 30 -116 46 -53 15 -104 35 -115 45 -21 19 -25 55 -9
84 14 25 79 44 123 36 37 -7 87 -54 87 -82 0 -8 10 -14 25 -14 17 0 25 5 25
18 0 32 -36 85 -71 104 -42 23 -142 24 -184 2z"/>
<path d="M4542 1830 c-23 -16 -44 -30 -47 -30 -3 0 -5 11 -5 25 0 20 -5 25
-25 25 l-25 0 0 -225 0 -225 25 0 25 0 0 138 c0 75 5 155 11 176 22 78 99 121
174 96 63 -21 70 -42 73 -237 l4 -173 25 0 25 0 -4 183 c-3 156 -6 187 -21
210 -29 45 -75 67 -138 67 -46 0 -63 -5 -97 -30z"/>
<path d="M5045 1844 c-16 -8 -37 -22 -46 -30 -22 -20 -29 -18 -29 11 0 20 -5
25 -25 25 l-25 0 0 -225 0 -225 24 0 24 0 3 153 c4 129 7 158 25 191 40 78
149 99 205 40 23 -25 24 -32 27 -205 l4 -179 24 0 24 0 0 175 c0 201 -10 239
-74 269 -43 20 -122 21 -161 0z"/>
<path d="M4260 1625 l0 -225 25 0 25 0 0 225 0 225 -25 0 -25 0 0 -225z"/>
<path d="M4073 624 l-1012 -424 -933 364 c-1176 458 -1091 426 -1095 423 -1
-2 454 -206 1012 -455 l1015 -452 952 452 c524 248 985 466 1023 484 39 18 66
33 60 33 -5 -1 -465 -192 -1022 -425z"/>
</g>
</svg>
